<?xml version="1.0" encoding="utf-8"?>
<!-- Generator: Adobe Illustrator 26.4.1, SVG Export Plug-In . SVG Version: 6.00 Build 0)  -->
<svg version="1.1" id="lni_lni-youtube" xmlns="http://www.w3.org/2000/svg" xmlns:xlink="http://www.w3.org/1999/xlink" x="0px"
	 y="0px" viewBox="0 0 52 52" style="enable-background:new 0 0 52 52;" xml:space="preserve">
<style type="text/css">
	.st0{fill:#FFFFFF;}
</style>
<path class="st0" d="M50.1,13.9c-0.6-2.2-2.3-3.9-4.5-4.5C41.8,8.4,26,8.4,26,8.4s-15.8,0-19.7,1.1c-2.2,0.6-3.9,2.3-4.5,4.5
	C0.8,17.9,0.8,26,0.8,26s0,8.2,1.1,12.1c0.6,2.2,2.3,3.9,4.5,4.5c3.9,1.1,19.7,1.1,19.7,1.1s15.8,0,19.7-1.1
	c2.2-0.6,3.9-2.3,4.5-4.5c1.1-3.9,1.1-12.1,1.1-12.1S51.2,17.9,50.1,13.9z M21,33.6V18.4L34,26L21,33.6z"/>
</svg>
