<?xml version="1.0" encoding="utf-8"?>
<!-- Generator: Adobe Illustrator 26.4.1, SVG Export Plug-In . SVG Version: 6.00 Build 0)  -->
<svg version="1.1" id="lni_lni-linkedin-original" xmlns="http://www.w3.org/2000/svg" xmlns:xlink="http://www.w3.org/1999/xlink"
	 x="0px" y="0px" viewBox="0 0 52 52" style="enable-background:new 0 0 52 52;" xml:space="preserve">
<style type="text/css">
	.st0{fill:#FFFFFF;}
</style>
<path class="st0" d="M47.5,0.8h-43c-2,0-3.7,1.6-3.7,3.7v43.1c0,2,1.6,3.7,3.7,3.7h42.8c2,0,3.7-1.6,3.7-3.7V4.4
	C51.2,2.4,49.6,0.8,47.5,0.8z M15.8,43.6H8.4v-24h7.4V43.6z M12,16.3c-2.4,0-4.3-2-4.3-4.3S9.7,7.7,12,7.7s4.3,1.9,4.3,4.3
	S14.5,16.3,12,16.3z M43.8,43.6h-7.4V32c0-2.8-0.1-6.4-3.9-6.4c-3.9,0-4.5,3.1-4.5,6.2v11.9h-7.4v-24h7.2V23H28
	c1.1-2,3.4-3.9,7.1-3.9c7.6,0,8.9,4.9,8.9,11.5v13H43.8z"/>
</svg>
