<?xml version="1.0" encoding="utf-8"?>
<!-- Generator: Adobe Illustrator 26.4.1, SVG Export Plug-In . SVG Version: 6.00 Build 0)  -->
<svg version="1.1" id="lni_lni-instagram-original" xmlns="http://www.w3.org/2000/svg" xmlns:xlink="http://www.w3.org/1999/xlink"
	 x="0px" y="0px" viewBox="0 0 52 52" style="enable-background:new 0 0 52 52;" xml:space="preserve">
<style type="text/css">
	.st0{fill:#FFFFFF;}
</style>
<g>
	<path class="st0" d="M51.1,15.6C51,13,50.5,11.1,50,9.4S48.5,6.3,47.1,5s-2.8-2.2-4.4-2.8S39.3,1.1,36.6,1
		C33.7,0.8,32.9,0.8,26,0.8s-7.6,0-10.4,0.1S11.1,1.5,9.4,2S6.3,3.6,5,5S2.7,7.7,2.1,9.4c-0.6,1.6-1.1,3.4-1.1,6.2S0.8,19.1,0.8,26
		s0,7.6,0.1,10.4C1,39.2,1.5,40.9,2,42.6s1.5,3.1,2.8,4.5c1.4,1.4,2.8,2.3,4.5,2.8c1.6,0.6,3.4,1.1,6.2,1.1
		c2.8,0.2,3.5,0.2,10.4,0.2s7.6,0,10.4-0.1c2.8-0.1,4.5-0.6,6.2-1.1c1.7-0.6,3.1-1.5,4.5-2.8c1.4-1.4,2.3-2.8,2.8-4.5
		c0.6-1.6,1.1-3.4,1.1-6.2C51,33.9,51,33.1,51,26.2S51.2,18.4,51.1,15.6z M46.6,36.2c-0.1,2.4-0.6,3.7-0.9,4.7c-0.5,1.1-1.1,2-2,2.8
		c-0.9,0.9-1.7,1.4-2.8,2c-0.9,0.3-2.2,0.8-4.7,0.9c-2.6,0-3.4,0-10.1,0s-7.6,0-10.2-0.1c-2.4-0.1-3.7-0.6-4.7-0.9
		c-1.1-0.5-2-1.1-2.8-2c-0.9-0.9-1.4-1.7-2-2.8c-0.3-0.9-0.8-2.2-0.9-4.7c0-2.5,0-3.3,0-10.1s0-7.6,0.1-10.2
		c0.1-2.4,0.6-3.7,0.9-4.7C7,10,7.6,9.1,8.4,8.3c0.9-0.9,1.7-1.4,2.8-1.9c0.9-0.3,2.2-0.8,4.7-0.9c2.6-0.1,3.4-0.1,10.2-0.1
		s7.6,0,10.2,0.1c2.4,0.1,3.7,0.6,4.7,0.9c1.1,0.5,2,1.1,2.8,1.9c0.9,0.9,1.4,1.7,2,2.8c0.3,0.9,0.8,2.2,0.9,4.7
		c0.1,2.6,0.1,3.4,0.1,10.2S46.6,33.6,46.6,36.2z"/>
	<path class="st0" d="M26,13.1c-7.2,0-12.9,5.8-12.9,12.9c0,7.2,5.8,12.9,12.9,12.9S39,33.2,39,26S33.2,13.1,26,13.1z M26,34.5
		c-4.7,0-8.4-3.8-8.4-8.5s3.8-8.4,8.4-8.4c4.7,0,8.5,3.7,8.5,8.4S30.7,34.5,26,34.5z"/>
	<ellipse class="st0" cx="39.6" cy="12.5" rx="3" ry="3"/>
</g>
</svg>
